# Blender v2.92.0 OBJ File: 'trum.blend'
# www.blender.org
mtllib ufoScreen.mtl
o bildschirm_links
v 0.624902 -0.614800 2.790403
v 0.624902 -0.376534 3.319203
v 0.624902 -0.672227 2.816278
v 0.624902 -0.433962 3.345078
v -0.603742 -0.614800 2.790403
v -0.603742 -0.376534 3.319203
v -0.603742 -0.672227 2.816278
v -0.603742 -0.433962 3.345078
vt 0.875000 0.500000
vt 0.625000 0.500000
vt 0.625000 0.750000
vt 0.375000 0.750000
vt 0.375000 1.000000
vt 0.625000 0.000000
vt 0.375000 0.000000
vt 0.375000 0.250000
vt 0.375000 0.500000
vt 0.125000 0.500000
vt 0.125000 0.750000
vt 0.625000 0.250000
vt 0.875000 0.750000
vt 0.625000 1.000000
vn 0.0000 -0.4108 -0.9117
vn 0.0000 -0.9117 0.4108
vn -1.0000 0.0000 0.0000
vn 0.0000 0.4108 0.9117
vn 1.0000 0.0000 0.0000
vn 0.0000 0.9117 -0.4108
usemtl Material.032
s off
f 5/1/1 1/2/1 3/3/1
f 3/3/2 4/4/2 8/5/2
f 7/6/3 8/7/3 6/8/3
f 2/9/4 6/10/4 8/11/4
f 1/2/5 2/9/5 4/4/5
f 5/12/6 6/8/6 2/9/6
f 5/1/1 3/3/1 7/13/1
f 3/3/2 8/5/2 7/14/2
f 7/6/3 6/8/3 5/12/3
f 2/9/4 8/11/4 4/4/4
f 1/2/5 4/4/5 3/3/5
f 5/12/6 2/9/6 1/2/6
o bildschirm_rechts
v 0.624902 -0.621413 -2.675988
v 0.624902 -0.383148 -3.204788
v 0.624902 -0.678841 -2.701863
v 0.624902 -0.440575 -3.230663
v -0.603742 -0.621413 -2.675988
v -0.603742 -0.383148 -3.204788
v -0.603742 -0.678841 -2.701863
v -0.603742 -0.440575 -3.230663
vt 0.875000 0.500000
vt 0.625000 0.750000
vt 0.625000 0.500000
vt 0.375000 1.000000
vt 0.375000 0.750000
vt 0.625000 0.000000
vt 0.375000 0.250000
vt 0.375000 0.000000
vt 0.375000 0.500000
vt 0.125000 0.750000
vt 0.125000 0.500000
vt 0.625000 0.250000
vt 0.875000 0.750000
vt 0.625000 1.000000
vn 0.0000 -0.4108 0.9117
vn 0.0000 -0.9117 -0.4108
vn -1.0000 0.0000 0.0000
vn 0.0000 0.4108 -0.9117
vn 1.0000 0.0000 0.0000
vn 0.0000 0.9117 0.4108
usemtl Material.031
s off
f 13/15/7 11/16/7 9/17/7
f 11/16/8 16/18/8 12/19/8
f 15/20/9 14/21/9 16/22/9
f 10/23/10 16/24/10 14/25/10
f 9/17/11 12/19/11 10/23/11
f 13/26/12 10/23/12 14/21/12
f 13/15/7 15/27/7 11/16/7
f 11/16/8 15/28/8 16/18/8
f 15/20/9 13/26/9 14/21/9
f 10/23/10 12/19/10 16/24/10
f 9/17/11 11/16/11 12/19/11
f 13/26/12 9/17/12 10/23/12
